<svg xmlns="http://www.w3.org/2000/svg" version="1.1" xmlns:xlink="http://www.w3.org/1999/xlink" width="256" height="256"><svg xmlns="http://www.w3.org/2000/svg" version="1.1" xmlns:xlink="http://www.w3.org/1999/xlink" width="256" height="256"><svg xmlns="http://www.w3.org/2000/svg" viewBox="0 0 256 256" width="256" height="256" fill="none">

  <!-- Fundo -->
  <rect width="256" height="256" rx="32" fill="#1e3a8a"></rect>

  <!-- Documento -->
  <path d="M72 32h88l40 40v120c0 13.3-10.7 24-24 24H72c-13.3 0-24-10.7-24-24V56c0-13.3 10.7-24 24-24z" fill="#ffffff"></path>

  <!-- Dobra -->
  <path d="M160 32v40h40" fill="#dbeafe"></path>

  <!-- Linhas no TOPO, na altura da dobra -->
  <rect x="88" y="72" width="72" height="8" rx="4" fill="#1e3a8a"></rect>
  <rect x="88" y="88" width="72" height="8" rx="4" fill="#1e3a8a"></rect>

  <!-- Rubrica (mais abaixo, centralizada, forte) -->
  <path d="
    M88 182
    c16-14 28 14 44 0
    s28 14 44 0
  " stroke="#1e3a8a" stroke-width="10" fill="none" stroke-linecap="round"></path>
</svg></svg><style>@media (prefers-color-scheme: light) { :root { filter: none; } }
@media (prefers-color-scheme: dark) { :root { filter: none; } }
</style></svg>